# xmcd
#
# Track frame offsets:
#	150
#	4803
#	24300
#	38533
#	56865
#	71316
#	91130
#	112064
#	133483
#	150655
#	168931
#	189880
#	208585
#	219785
#	239456
#	264586
#	282477
#	308050
#	325589
#	329953
#
# Disc length: 4647 seconds
#
# Revision: 1
# Processed by: cddbd v1.5.2PL0 Copyright (c) Steve Scherf et al.
# Submitted via: EasyCDDAExtractor 2010.4.0.0
#
DISCID=1b122514
DTITLE=MC SNIPER - FULL TIME
DYEAR=2012
DGENRE=Hip-Hop
TTITLE0=일어서며
TTITLE1=데이빗
TTITLE2=Job Korea
TTITLE3=할 수 있어 (With. 이루마)
TTITLE4=Push It (Feat. Illinit)
TTITLE5=Letter To Heaven
TTITLE6=인생 (Feat. 웅산)
TTITLE7=나는 다시 일어서
TTITLE8=난 늘 여자와의 이별보다 남자와의 이별이 더 아팠다 (Feat. 박완규)
TTITLE9=Drive (Feat. Ugly Picture, 혜미)
TTITLE10=논현 랩소디
TTITLE11=Piano (Feat. 리아)
TTITLE12=Absinthe
TTITLE13=거울자아 (Feat. 화나, 혜미)
TTITLE14=Call Me (Feat. Skull, 지조, Deegie, Minos, 비도승우, Joosuc)
TTITLE15=불량품 (Feat. Dead'P)
TTITLE16=Better Days (Feat. Snipersound)
TTITLE17=죽음의 예술 (Feat. Mc Meta)
TTITLE18=돌아서며
TTITLE19=할 수 있어 (Song Ver.With김지수)
EXTD=
EXTT0=
EXTT1=
EXTT2=
EXTT3=
EXTT4=
EXTT5=
EXTT6=
EXTT7=
EXTT8=
EXTT9=
EXTT10=
EXTT11=
EXTT12=
EXTT13=
EXTT14=
EXTT15=
EXTT16=
EXTT17=
EXTT18=
EXTT19=
PLAYORDER=
